<svg width="100%" height="80" viewBox="0 0 2023.3 98.4" xmlns="http://www.w3.org/2000/svg">
    <g id="svgGroup" stroke-linecap="round" fill-rule="evenodd" font-size="9pt" stroke="#000"
       stroke-width="0.25mm" fill="none" style="stroke:#000;stroke-width:0.25mm;fill:none">
        <path d="M 31 75.2 L 21.5 75.2 L 21.5 13.6 L 0 13.6 L 0 5.2 L 52.5 5.2 L 52.5 13.6 L 31 13.6 L 31 75.2 Z"
              id="0" vector-effect="non-scaling-stroke"/>
        <path d="M 70.5 75.2 L 61.5 75.2 L 61.5 1.2 L 70.5 1.2 L 70.5 31.5 Q 73.3 27.4 77.6 24.7 A 17.572 17.572 0 0 1 84.725 22.191 A 22.595 22.595 0 0 1 87.7 22 A 23.225 23.225 0 0 1 92.765 22.518 Q 97.859 23.656 100.85 27.3 Q 104.975 32.326 105.188 40.409 A 33.764 33.764 0 0 1 105.2 41.3 L 105.2 75.2 L 96.2 75.2 L 96.2 42.3 Q 96.2 36.7 93.6 33.3 A 8.42 8.42 0 0 0 87.442 29.953 A 11.979 11.979 0 0 0 86.3 29.9 A 13.23 13.23 0 0 0 79.587 31.767 A 17.586 17.586 0 0 0 77.55 33.15 Q 73.4 36.4 70.5 40.8 L 70.5 75.2 Z"
              id="1" vector-effect="non-scaling-stroke"/>
        <path d="M 162.8 52.9 L 126.4 52.9 A 24.088 24.088 0 0 0 127.539 57.925 Q 128.875 61.738 131.5 64.3 Q 135.7 68.4 142.6 68.4 Q 147.1 68.4 150.7 67.45 Q 154.3 66.5 157.6 65 L 159.7 72.7 A 40.77 40.77 0 0 1 155.365 74.326 A 51.863 51.863 0 0 1 151.6 75.35 A 38.914 38.914 0 0 1 146.508 76.169 A 52.025 52.025 0 0 1 141.5 76.4 A 28.318 28.318 0 0 1 133.754 75.395 A 21.108 21.108 0 0 1 123.75 69.25 A 23.521 23.521 0 0 1 118.545 59.71 Q 117.2 55.045 117.2 49.2 A 35.359 35.359 0 0 1 118.033 41.378 A 28.84 28.84 0 0 1 120.15 35.25 A 24.642 24.642 0 0 1 125.166 28.168 A 22.887 22.887 0 0 1 128.4 25.55 A 21.048 21.048 0 0 1 138.659 22.078 A 26.205 26.205 0 0 1 140.7 22 Q 148.2 22 153.15 25.25 Q 158.1 28.5 160.6 34 A 28.185 28.185 0 0 1 163.026 43.864 A 33.434 33.434 0 0 1 163.1 46.1 A 75.204 75.204 0 0 1 162.809 52.797 A 69.426 69.426 0 0 1 162.8 52.9 Z M 126.3 45.6 L 154.8 45.6 A 24.355 24.355 0 0 0 154.396 41.015 Q 153.9 38.431 152.796 36.407 A 12.422 12.422 0 0 0 151 33.9 A 12.488 12.488 0 0 0 144.039 30.124 A 18.395 18.395 0 0 0 140.5 29.8 A 13.58 13.58 0 0 0 135.388 30.735 A 12.524 12.524 0 0 0 130.9 33.85 Q 127.1 37.9 126.3 45.6 Z"
              id="2" vector-effect="non-scaling-stroke"/>
        <path d="M 215.1 75.2 L 206.1 75.2 L 206.1 32.9 L 198.1 32.9 L 198.1 25.1 L 206.1 25.1 L 206.1 19 A 25.495 25.495 0 0 1 206.726 13.182 Q 207.834 8.452 210.902 5.203 A 16.387 16.387 0 0 1 211 5.1 A 16.367 16.367 0 0 1 221.404 0.125 A 22.463 22.463 0 0 1 223.8 0 A 29.982 29.982 0 0 1 227.31 0.195 Q 229.055 0.401 230.571 0.825 A 17.884 17.884 0 0 1 231 0.95 Q 234.1 1.9 236.9 3.3 L 234.2 10.9 Q 232.1 9.8 229.7 8.9 A 14.172 14.172 0 0 0 226.078 8.079 A 17.356 17.356 0 0 0 224.4 8 A 10.802 10.802 0 0 0 221.371 8.405 A 8.291 8.291 0 0 0 217.65 10.65 A 8.462 8.462 0 0 0 215.703 14.019 Q 215.1 15.92 215.1 18.4 L 215.1 25.1 L 230.5 25.1 L 230.5 32.9 L 215.1 32.9 L 215.1 75.2 Z"
              id="4" vector-effect="non-scaling-stroke"/>
        <path d="M 247 72.95 A 24.559 24.559 0 0 0 251.598 75.04 Q 255.653 76.4 260.3 76.4 Q 267.7 76.4 273.55 73 Q 279.4 69.6 282.8 63.45 A 26.255 26.255 0 0 0 285.453 56.309 A 34.184 34.184 0 0 0 286.2 49 A 34.542 34.542 0 0 0 285.715 43.092 A 25.795 25.795 0 0 0 282.75 34.65 Q 279.3 28.6 273.45 25.3 A 24.848 24.848 0 0 0 268.809 23.273 A 27.738 27.738 0 0 0 260.3 22 A 31.325 31.325 0 0 0 258.72 22.04 A 26.169 26.169 0 0 0 247.1 25.3 Q 241.2 28.6 237.8 34.7 A 26.023 26.023 0 0 0 235.051 42.29 A 35.006 35.006 0 0 0 234.4 49.2 A 34.82 34.82 0 0 0 234.665 53.554 A 27.451 27.451 0 0 0 237.75 63.35 Q 241.1 69.5 247 72.95 Z M 260.3 68.4 Q 268.2 68.4 272.6 63.05 A 18.802 18.802 0 0 0 276.419 54.96 A 27.105 27.105 0 0 0 277 49.2 Q 277 44 274.8 39.65 A 19.198 19.198 0 0 0 270.628 34.081 A 18.17 18.17 0 0 0 268.85 32.65 Q 265.1 30 260.3 30 A 19.249 19.249 0 0 0 255.074 30.672 A 14.037 14.037 0 0 0 248 35.2 A 17.878 17.878 0 0 0 244.326 42.574 Q 243.6 45.506 243.6 49 Q 243.6 54.2 245.8 58.65 A 19.437 19.437 0 0 0 249.33 63.69 A 17.627 17.627 0 0 0 251.75 65.75 Q 255.5 68.4 260.3 68.4 Z"
              id="5" vector-effect="non-scaling-stroke"/>
        <path d="M 297.7 57 L 297.7 23.2 L 306.7 23.2 L 306.7 55.8 A 22.981 22.981 0 0 0 306.954 59.334 Q 307.242 61.181 307.857 62.67 A 10.136 10.136 0 0 0 309.3 65.15 A 8.404 8.404 0 0 0 314.413 68.171 A 12.807 12.807 0 0 0 316.9 68.4 Q 321 68.4 324.85 66.75 Q 328.7 65.1 331.7 62.3 L 331.7 23.2 L 340.7 23.2 L 340.7 61.7 A 15.602 15.602 0 0 0 340.802 63.554 Q 341.134 66.317 342.55 67.35 Q 344.4 68.7 346.6 68.7 L 344.7 75.7 Q 335.4 75.7 333.2 68.3 Q 329.7 71.9 325.1 74.15 Q 320.5 76.4 315.2 76.4 Q 310.7 76.4 306.7 74.5 A 14.441 14.441 0 0 1 301.19 69.861 A 18.266 18.266 0 0 1 300.2 68.35 A 16.24 16.24 0 0 1 298.536 64.257 Q 297.7 61.105 297.7 57 Z"
              id="6" vector-effect="non-scaling-stroke"/>
        <path d="M 367.6 75.2 L 358.6 75.2 L 358.6 23.2 L 367.3 23.2 L 367.3 31.9 Q 370.1 27.7 374.45 24.85 A 17.316 17.316 0 0 1 381.556 22.226 A 22.629 22.629 0 0 1 384.8 22 A 23.225 23.225 0 0 1 389.865 22.518 Q 394.959 23.656 397.95 27.3 Q 402.075 32.326 402.288 40.409 A 33.764 33.764 0 0 1 402.3 41.3 L 402.3 75.2 L 393.3 75.2 L 393.3 42.3 A 19.265 19.265 0 0 0 392.958 38.559 Q 392.519 36.345 391.519 34.597 A 10.966 10.966 0 0 0 390.65 33.3 A 8.579 8.579 0 0 0 384.373 29.947 A 12.061 12.061 0 0 0 383.3 29.9 A 13.122 13.122 0 0 0 376.451 31.864 A 17.353 17.353 0 0 0 374.6 33.15 Q 370.5 36.4 367.6 40.8 L 367.6 75.2 Z"
              id="7" vector-effect="non-scaling-stroke"/>
        <path d="M 452.2 28.4 L 452.2 1.2 L 461.2 1.2 L 461.2 62.6 A 12.15 12.15 0 0 0 461.302 64.236 Q 461.634 66.67 463.05 67.55 Q 464.9 68.7 467.1 68.7 L 465.2 75.7 Q 455.7 75.7 453.6 68.1 Q 451.4 71.2 447.45 73.8 Q 443.5 76.4 437.5 76.4 Q 431.1 76.4 425.8 73.1 A 22.692 22.692 0 0 1 418.262 65.309 A 27.622 27.622 0 0 1 417.4 63.75 A 27.533 27.533 0 0 1 414.812 55.808 A 37.221 37.221 0 0 1 414.3 49.5 A 33.94 33.94 0 0 1 415.189 41.586 A 27.963 27.963 0 0 1 417.45 35.4 A 27.291 27.291 0 0 1 422.069 28.809 A 24.186 24.186 0 0 1 425.85 25.6 Q 431.1 22 437.4 22 A 21.642 21.642 0 0 1 441.672 22.402 A 15.942 15.942 0 0 1 446.35 24.1 A 34.343 34.343 0 0 1 448.93 25.689 Q 450.154 26.524 451.125 27.374 A 16.59 16.59 0 0 1 452.2 28.4 Z M 452.2 62.1 L 452.2 36.3 A 15.847 15.847 0 0 0 450.089 34.127 Q 448.968 33.164 447.569 32.266 A 28.139 28.139 0 0 0 446.9 31.85 Q 443.5 29.8 439.4 29.8 A 14.946 14.946 0 0 0 434.444 30.6 A 13.385 13.385 0 0 0 431 32.4 A 16.69 16.69 0 0 0 425.83 38.55 A 19.924 19.924 0 0 0 425.45 39.35 A 22.19 22.19 0 0 0 423.71 45.715 A 28.113 28.113 0 0 0 423.5 49.2 A 24.757 24.757 0 0 0 424.093 54.719 A 20.327 20.327 0 0 0 425.6 59.05 A 18.205 18.205 0 0 0 428.64 63.564 A 16.122 16.122 0 0 0 431.35 65.9 Q 435 68.4 439.5 68.4 Q 443.2 68.4 446.55 66.65 Q 449.9 64.9 452.2 62.1 Z"
              id="8" vector-effect="non-scaling-stroke"/>
        <path d="M 520.2 52.9 L 483.8 52.9 A 24.088 24.088 0 0 0 484.939 57.925 Q 486.275 61.738 488.9 64.3 Q 493.1 68.4 500 68.4 Q 504.5 68.4 508.1 67.45 Q 511.7 66.5 515 65 L 517.1 72.7 A 40.77 40.77 0 0 1 512.765 74.326 A 51.863 51.863 0 0 1 509 75.35 A 38.914 38.914 0 0 1 503.908 76.169 A 52.025 52.025 0 0 1 498.9 76.4 A 28.318 28.318 0 0 1 491.154 75.395 A 21.108 21.108 0 0 1 481.15 69.25 A 23.521 23.521 0 0 1 475.945 59.71 Q 474.6 55.045 474.6 49.2 A 35.359 35.359 0 0 1 475.433 41.378 A 28.84 28.84 0 0 1 477.55 35.25 A 24.642 24.642 0 0 1 482.566 28.168 A 22.887 22.887 0 0 1 485.8 25.55 A 21.048 21.048 0 0 1 496.059 22.078 A 26.205 26.205 0 0 1 498.1 22 Q 505.6 22 510.55 25.25 Q 515.5 28.5 518 34 A 28.185 28.185 0 0 1 520.426 43.864 A 33.434 33.434 0 0 1 520.5 46.1 A 75.204 75.204 0 0 1 520.209 52.797 A 69.426 69.426 0 0 1 520.2 52.9 Z M 483.7 45.6 L 512.2 45.6 A 24.355 24.355 0 0 0 511.796 41.015 Q 511.3 38.431 510.196 36.407 A 12.422 12.422 0 0 0 508.4 33.9 A 12.488 12.488 0 0 0 501.439 30.124 A 18.395 18.395 0 0 0 497.9 29.8 A 13.58 13.58 0 0 0 492.788 30.735 A 12.524 12.524 0 0 0 488.3 33.85 Q 484.5 37.9 483.7 45.6 Z"
              id="9" vector-effect="non-scaling-stroke"/>
        <path d="M 541.5 75.2 L 532.5 75.2 L 532.5 23.2 L 541.2 23.2 L 541.2 34.5 Q 542.5 31.2 544.7 28.35 Q 546.9 25.5 550.2 23.75 A 14.817 14.817 0 0 1 554.88 22.226 A 19.459 19.459 0 0 1 557.9 22 Q 559.4 22 560.9 22.15 A 18.972 18.972 0 0 1 561.955 22.284 Q 562.455 22.362 562.882 22.463 A 8.817 8.817 0 0 1 563.4 22.6 L 560.7 31.9 A 9.763 9.763 0 0 0 558.555 31.288 Q 557.459 31.1 556.2 31.1 A 12.958 12.958 0 0 0 549.57 32.946 A 15.609 15.609 0 0 0 549.15 33.2 Q 545.822 35.286 543.678 39.642 A 22.927 22.927 0 0 0 543.65 39.7 Q 541.887 43.307 541.57 48.528 A 39.09 39.09 0 0 0 541.5 50.9 L 541.5 75.2 Z"
              id="10" vector-effect="non-scaling-stroke"/>
        <path d="M 611 72.95 A 24.559 24.559 0 0 0 615.598 75.04 Q 619.653 76.4 624.3 76.4 Q 631.7 76.4 637.55 73 Q 643.4 69.6 646.8 63.45 A 26.255 26.255 0 0 0 649.453 56.309 A 34.184 34.184 0 0 0 650.2 49 A 34.542 34.542 0 0 0 649.715 43.092 A 25.795 25.795 0 0 0 646.75 34.65 Q 643.3 28.6 637.45 25.3 A 24.848 24.848 0 0 0 632.809 23.273 A 27.738 27.738 0 0 0 624.3 22 A 31.325 31.325 0 0 0 622.72 22.04 A 26.169 26.169 0 0 0 611.1 25.3 Q 605.2 28.6 601.8 34.7 A 26.023 26.023 0 0 0 599.051 42.29 A 35.006 35.006 0 0 0 598.4 49.2 A 34.82 34.82 0 0 0 598.665 53.554 A 27.451 27.451 0 0 0 601.75 63.35 Q 605.1 69.5 611 72.95 Z M 624.3 68.4 Q 632.2 68.4 636.6 63.05 A 18.802 18.802 0 0 0 640.419 54.96 A 27.105 27.105 0 0 0 641 49.2 Q 641 44 638.8 39.65 A 19.198 19.198 0 0 0 634.628 34.081 A 18.17 18.17 0 0 0 632.85 32.65 Q 629.1 30 624.3 30 A 19.249 19.249 0 0 0 619.074 30.672 A 14.037 14.037 0 0 0 612 35.2 A 17.878 17.878 0 0 0 608.326 42.574 Q 607.6 45.506 607.6 49 Q 607.6 54.2 609.8 58.65 A 19.437 19.437 0 0 0 613.33 63.69 A 17.627 17.627 0 0 0 615.75 65.75 Q 619.5 68.4 624.3 68.4 Z"
              id="12" vector-effect="non-scaling-stroke"/>
        <path d="M 672.2 75.2 L 663.2 75.2 L 663.2 32.9 L 655.2 32.9 L 655.2 25.1 L 663.2 25.1 L 663.2 19 A 25.495 25.495 0 0 1 663.826 13.182 Q 664.934 8.452 668.002 5.203 A 16.387 16.387 0 0 1 668.1 5.1 A 16.367 16.367 0 0 1 678.504 0.125 A 22.463 22.463 0 0 1 680.9 0 A 29.982 29.982 0 0 1 684.41 0.195 Q 686.155 0.401 687.671 0.825 A 17.884 17.884 0 0 1 688.1 0.95 Q 691.2 1.9 694 3.3 L 691.3 10.9 Q 689.2 9.8 686.8 8.9 A 14.172 14.172 0 0 0 683.178 8.079 A 17.356 17.356 0 0 0 681.5 8 A 10.802 10.802 0 0 0 678.471 8.405 A 8.291 8.291 0 0 0 674.75 10.65 A 8.462 8.462 0 0 0 672.803 14.019 Q 672.2 15.92 672.2 18.4 L 672.2 25.1 L 687.6 25.1 L 687.6 32.9 L 672.2 32.9 L 672.2 75.2 Z"
              id="13" vector-effect="non-scaling-stroke"/>
        <path d="M 784.8 72.7 L 776.1 76.2 L 768.3 56.2 L 735.9 56.2 L 728.1 76 L 720 72.7 L 747.4 5.2 L 757.8 5.2 L 784.8 72.7 Z M 752.1 14.6 L 738.9 48.2 L 765.2 48.2 L 752.1 14.6 Z"
              id="15" vector-effect="non-scaling-stroke"/>
        <path d="M 802.8 75.2 L 793.8 75.2 L 793.8 23.2 L 802.5 23.2 L 802.5 31.9 Q 805.3 27.7 809.65 24.85 A 17.316 17.316 0 0 1 816.756 22.226 A 22.629 22.629 0 0 1 820 22 A 23.225 23.225 0 0 1 825.065 22.518 Q 830.159 23.656 833.15 27.3 Q 837.275 32.326 837.488 40.409 A 33.764 33.764 0 0 1 837.5 41.3 L 837.5 75.2 L 828.5 75.2 L 828.5 42.3 A 19.265 19.265 0 0 0 828.158 38.559 Q 827.719 36.345 826.719 34.597 A 10.966 10.966 0 0 0 825.85 33.3 A 8.579 8.579 0 0 0 819.573 29.947 A 12.061 12.061 0 0 0 818.5 29.9 A 13.122 13.122 0 0 0 811.651 31.864 A 17.353 17.353 0 0 0 809.8 33.15 Q 805.7 36.4 802.8 40.8 L 802.8 75.2 Z"
              id="16" vector-effect="non-scaling-stroke"/>
        <path d="M 855.4 94 L 858.7 86.2 A 20.562 20.562 0 0 0 862.517 88.573 A 24.737 24.737 0 0 0 864.3 89.35 Q 867.059 90.428 870.859 90.576 A 31.788 31.788 0 0 0 872.1 90.6 A 21.701 21.701 0 0 0 876.621 90.157 Q 879.522 89.539 881.722 88.059 A 12.576 12.576 0 0 0 883.25 86.85 A 11.352 11.352 0 0 0 886.157 82.357 Q 887.3 79.256 887.3 74.9 L 887.3 68.5 Q 885.3 70.9 881.55 73.05 Q 877.8 75.2 872.6 75.2 Q 866.7 75.2 861.4 72.15 A 22.236 22.236 0 0 1 854.108 65.312 A 27.437 27.437 0 0 1 852.8 63.2 A 25.181 25.181 0 0 1 850.087 55.576 A 35.033 35.033 0 0 1 849.5 49 A 32.06 32.06 0 0 1 850.417 41.192 A 26.682 26.682 0 0 1 852.75 35.1 A 25.706 25.706 0 0 1 858.814 27.478 A 24.448 24.448 0 0 1 861.5 25.5 Q 867 22 873.6 22 A 22.366 22.366 0 0 1 878.42 22.501 A 18.715 18.715 0 0 1 881.6 23.5 A 25.705 25.705 0 0 1 885.428 25.468 A 20.998 20.998 0 0 1 887.8 27.2 L 887.8 23.2 L 896 23.2 L 896 74 Q 896 82.6 893 88 Q 890 93.4 884.65 95.9 A 25.811 25.811 0 0 1 878.046 97.922 A 35.243 35.243 0 0 1 872.1 98.4 Q 867.5 98.4 863.15 97.3 A 27.232 27.232 0 0 1 857.85 95.383 A 23.518 23.518 0 0 1 855.4 94 Z M 887 61.2 L 887 34 Q 884.834 32.425 881.797 31.141 A 36.018 36.018 0 0 0 881.7 31.1 A 16.249 16.249 0 0 0 877.896 30.049 A 22.135 22.135 0 0 0 874.5 29.8 Q 870.4 29.8 866.8 32 Q 863.2 34.2 860.95 38.35 Q 858.7 42.5 858.7 48.5 A 24.32 24.32 0 0 0 859.178 53.436 A 18.311 18.311 0 0 0 860.95 58.4 A 18.576 18.576 0 0 0 863.861 62.475 A 15.802 15.802 0 0 0 866.8 64.9 Q 870.4 67.2 874.6 67.2 A 15.276 15.276 0 0 0 879.178 66.532 A 13.606 13.606 0 0 0 881.8 65.4 A 20.855 20.855 0 0 0 884.781 63.384 A 16.309 16.309 0 0 0 887 61.2 Z"
              id="17" vector-effect="non-scaling-stroke"/>
        <path d="M 911 57 L 911 23.2 L 920 23.2 L 920 55.8 A 22.981 22.981 0 0 0 920.254 59.334 Q 920.542 61.181 921.157 62.67 A 10.136 10.136 0 0 0 922.6 65.15 A 8.404 8.404 0 0 0 927.713 68.171 A 12.807 12.807 0 0 0 930.2 68.4 Q 934.3 68.4 938.15 66.75 Q 942 65.1 945 62.3 L 945 23.2 L 954 23.2 L 954 61.7 A 15.602 15.602 0 0 0 954.102 63.554 Q 954.434 66.317 955.85 67.35 Q 957.7 68.7 959.9 68.7 L 958 75.7 Q 948.7 75.7 946.5 68.3 Q 943 71.9 938.4 74.15 Q 933.8 76.4 928.5 76.4 Q 924 76.4 920 74.5 A 14.441 14.441 0 0 1 914.49 69.861 A 18.266 18.266 0 0 1 913.5 68.35 A 16.24 16.24 0 0 1 911.836 64.257 Q 911 61.105 911 57 Z"
              id="18" vector-effect="non-scaling-stroke"/>
        <path d="M 971.4 58.9 L 971.4 1.2 L 980.4 1.2 L 980.4 58 A 20.644 20.644 0 0 0 980.588 60.888 Q 981.05 64.152 982.65 66 A 7.363 7.363 0 0 0 987.234 68.476 A 10.724 10.724 0 0 0 988.9 68.6 Q 990.8 68.6 992.65 68.15 A 22.192 22.192 0 0 0 994.113 67.744 Q 995.048 67.447 995.8 67.1 L 998 74.4 Q 996.601 75.022 994.688 75.523 A 34.978 34.978 0 0 1 993.55 75.8 A 23.816 23.816 0 0 1 990.395 76.285 A 30.514 30.514 0 0 1 987.7 76.4 A 20.862 20.862 0 0 1 982.81 75.846 A 17.544 17.544 0 0 1 979.4 74.65 A 12.683 12.683 0 0 1 974.075 69.885 A 15.856 15.856 0 0 1 973.55 69 Q 971.816 65.854 971.48 61.212 A 32.105 32.105 0 0 1 971.4 58.9 Z"
              id="19" vector-effect="non-scaling-stroke"/>
        <path d="M 1040.6 27.4 L 1040.6 23.2 L 1048.8 23.2 L 1048.8 62.6 A 12.15 12.15 0 0 0 1048.902 64.236 Q 1049.234 66.67 1050.65 67.55 Q 1052.5 68.7 1054.7 68.7 L 1052.8 75.7 A 17.722 17.722 0 0 1 1048.535 75.228 Q 1042.898 73.828 1041.303 68.28 A 13.59 13.59 0 0 1 1041.2 67.9 A 21.307 21.307 0 0 1 1038.09 71.326 A 28.498 28.498 0 0 1 1034.95 73.75 Q 1031 76.4 1024.9 76.4 Q 1018.4 76.4 1013.1 73.1 A 22.947 22.947 0 0 1 1005.687 65.574 A 27.923 27.923 0 0 1 1004.65 63.75 A 27.228 27.228 0 0 1 1002.02 55.808 A 36.644 36.644 0 0 1 1001.5 49.5 A 33.142 33.142 0 0 1 1002.497 41.231 A 27.968 27.968 0 0 1 1004.65 35.5 Q 1007.8 29.3 1013.35 25.65 A 22.297 22.297 0 0 1 1024.545 22.044 A 27.388 27.388 0 0 1 1026.1 22 A 22.584 22.584 0 0 1 1030.894 22.491 A 18.703 18.703 0 0 1 1034.25 23.55 A 26.002 26.002 0 0 1 1038.537 25.844 A 22.103 22.103 0 0 1 1040.6 27.4 Z M 1039.8 61.9 L 1039.8 34 Q 1037.1 32.1 1033.85 30.95 Q 1030.6 29.8 1027 29.8 A 15.924 15.924 0 0 0 1022.029 30.554 A 14.024 14.024 0 0 0 1018.55 32.25 A 16.301 16.301 0 0 0 1013.531 37.674 A 19.962 19.962 0 0 0 1012.8 39.05 A 20.663 20.663 0 0 0 1011.047 44.727 A 27.678 27.678 0 0 0 1010.7 49.2 Q 1010.7 54.8 1012.8 59.15 A 17.602 17.602 0 0 0 1015.906 63.696 A 15.697 15.697 0 0 0 1018.6 65.95 Q 1022.3 68.4 1026.9 68.4 Q 1030.7 68.4 1034.1 66.55 Q 1037.5 64.7 1039.8 61.9 Z"
              id="20" vector-effect="non-scaling-stroke"/>
        <path d="M 1075.7 75.2 L 1066.7 75.2 L 1066.7 23.2 L 1075.4 23.2 L 1075.4 34.5 Q 1076.7 31.2 1078.9 28.35 Q 1081.1 25.5 1084.4 23.75 A 14.817 14.817 0 0 1 1089.08 22.226 A 19.459 19.459 0 0 1 1092.1 22 Q 1093.6 22 1095.1 22.15 A 18.972 18.972 0 0 1 1096.155 22.284 Q 1096.655 22.362 1097.082 22.463 A 8.817 8.817 0 0 1 1097.6 22.6 L 1094.9 31.9 A 9.763 9.763 0 0 0 1092.755 31.288 Q 1091.659 31.1 1090.4 31.1 A 12.958 12.958 0 0 0 1083.77 32.946 A 15.609 15.609 0 0 0 1083.35 33.2 Q 1080.022 35.286 1077.878 39.642 A 22.927 22.927 0 0 0 1077.85 39.7 Q 1076.087 43.307 1075.77 48.528 A 39.09 39.09 0 0 0 1075.7 50.9 L 1075.7 75.2 Z"
              id="21" vector-effect="non-scaling-stroke"/>
        <path d="M 1147.1 75.2 L 1137.6 75.2 L 1137.6 5.4 Q 1141.7 4.9 1146.65 4.65 A 200.806 200.806 0 0 1 1155.58 4.404 A 221.966 221.966 0 0 1 1156.9 4.4 Q 1164.47 4.4 1170.072 6.482 A 26.011 26.011 0 0 1 1171.7 7.15 A 24.606 24.606 0 0 1 1176.782 10.179 A 19.374 19.374 0 0 1 1181 14.7 Q 1184.2 19.5 1184.2 25.7 A 25.258 25.258 0 0 1 1183.492 31.822 A 19.268 19.268 0 0 1 1180.5 38.4 A 22.312 22.312 0 0 1 1172.949 45.03 A 28.065 28.065 0 0 1 1170.2 46.35 A 34.774 34.774 0 0 1 1162.111 48.574 A 47.194 47.194 0 0 1 1154.9 49.1 Q 1150.7 49.1 1147.1 48.8 L 1147.1 75.2 Z M 1147.1 12.8 L 1147.1 40.7 Q 1148.2 40.838 1149.631 40.952 A 96.255 96.255 0 0 0 1151 41.05 Q 1153.3 41.2 1156.1 41.2 A 31.831 31.831 0 0 0 1161.48 40.775 Q 1164.359 40.28 1166.663 39.211 A 15.221 15.221 0 0 0 1169.9 37.2 A 12.896 12.896 0 0 0 1174.755 27.758 A 17.32 17.32 0 0 0 1174.8 26.5 A 14.452 14.452 0 0 0 1174.039 21.707 A 12.136 12.136 0 0 0 1170.1 16.2 A 15.462 15.462 0 0 0 1165.019 13.537 Q 1162.793 12.826 1160.1 12.56 A 34.58 34.58 0 0 0 1156.7 12.4 A 131.125 131.125 0 0 0 1153.442 12.439 A 109.939 109.939 0 0 0 1151.6 12.5 A 91.274 91.274 0 0 0 1148.717 12.664 A 75.041 75.041 0 0 0 1147.1 12.8 Z"
              id="23" vector-effect="non-scaling-stroke"/>
        <path d="M 1235.3 52.9 L 1198.9 52.9 A 24.088 24.088 0 0 0 1200.039 57.925 Q 1201.375 61.738 1204 64.3 Q 1208.2 68.4 1215.1 68.4 Q 1219.6 68.4 1223.2 67.45 Q 1226.8 66.5 1230.1 65 L 1232.2 72.7 A 40.77 40.77 0 0 1 1227.865 74.326 A 51.863 51.863 0 0 1 1224.1 75.35 A 38.914 38.914 0 0 1 1219.008 76.169 A 52.025 52.025 0 0 1 1214 76.4 A 28.318 28.318 0 0 1 1206.254 75.395 A 21.108 21.108 0 0 1 1196.25 69.25 A 23.521 23.521 0 0 1 1191.045 59.71 Q 1189.7 55.045 1189.7 49.2 A 35.359 35.359 0 0 1 1190.533 41.378 A 28.84 28.84 0 0 1 1192.65 35.25 A 24.642 24.642 0 0 1 1197.666 28.168 A 22.887 22.887 0 0 1 1200.9 25.55 A 21.048 21.048 0 0 1 1211.159 22.078 A 26.205 26.205 0 0 1 1213.2 22 Q 1220.7 22 1225.65 25.25 Q 1230.6 28.5 1233.1 34 A 28.185 28.185 0 0 1 1235.526 43.864 A 33.434 33.434 0 0 1 1235.6 46.1 A 75.204 75.204 0 0 1 1235.309 52.797 A 69.426 69.426 0 0 1 1235.3 52.9 Z M 1198.8 45.6 L 1227.3 45.6 A 24.355 24.355 0 0 0 1226.896 41.015 Q 1226.4 38.431 1225.296 36.407 A 12.422 12.422 0 0 0 1223.5 33.9 A 12.488 12.488 0 0 0 1216.539 30.124 A 18.395 18.395 0 0 0 1213 29.8 A 13.58 13.58 0 0 0 1207.888 30.735 A 12.524 12.524 0 0 0 1203.4 33.85 Q 1199.6 37.9 1198.8 45.6 Z"
              id="24" vector-effect="non-scaling-stroke"/>
        <path d="M 1256.6 75.2 L 1247.6 75.2 L 1247.6 23.2 L 1256.3 23.2 L 1256.3 34.5 Q 1257.6 31.2 1259.8 28.35 Q 1262 25.5 1265.3 23.75 A 14.817 14.817 0 0 1 1269.98 22.226 A 19.459 19.459 0 0 1 1273 22 Q 1274.5 22 1276 22.15 A 18.972 18.972 0 0 1 1277.055 22.284 Q 1277.555 22.362 1277.982 22.463 A 8.817 8.817 0 0 1 1278.5 22.6 L 1275.8 31.9 A 9.763 9.763 0 0 0 1273.655 31.288 Q 1272.559 31.1 1271.3 31.1 A 12.958 12.958 0 0 0 1264.67 32.946 A 15.609 15.609 0 0 0 1264.25 33.2 Q 1260.922 35.286 1258.778 39.642 A 22.927 22.927 0 0 0 1258.75 39.7 Q 1256.987 43.307 1256.67 48.528 A 39.09 39.09 0 0 0 1256.6 50.9 L 1256.6 75.2 Z"
              id="25" vector-effect="non-scaling-stroke"/>
        <path d="M 1280.5 71 L 1284.3 63.5 A 18.557 18.557 0 0 0 1287.444 65.626 Q 1288.998 66.47 1290.85 67.15 A 24.073 24.073 0 0 0 1298.461 68.587 A 27.464 27.464 0 0 0 1299.3 68.6 Q 1304.692 68.6 1307.535 66.885 A 7.738 7.738 0 0 0 1307.75 66.75 Q 1310.6 64.9 1310.6 62 A 7.123 7.123 0 0 0 1310.286 59.853 A 6.212 6.212 0 0 0 1309.55 58.3 A 6.384 6.384 0 0 0 1308.621 57.206 Q 1307.607 56.234 1305.934 55.281 A 22.3 22.3 0 0 0 1305.7 55.15 A 28.462 28.462 0 0 0 1303.706 54.157 Q 1301.59 53.195 1298.601 52.146 A 103.602 103.602 0 0 0 1297.6 51.8 A 46.616 46.616 0 0 1 1293.202 50.057 Q 1291.088 49.083 1289.412 47.995 A 19.335 19.335 0 0 1 1286.65 45.85 A 11.324 11.324 0 0 1 1283.356 39.854 A 16.794 16.794 0 0 1 1283 36.3 Q 1283 30.3 1288.25 26.15 Q 1292.654 22.669 1299.908 22.108 A 37.527 37.527 0 0 1 1302.8 22 A 40.794 40.794 0 0 1 1307.246 22.231 Q 1309.554 22.484 1311.57 23.016 A 25.234 25.234 0 0 1 1311.7 23.05 Q 1315.6 24.1 1318.7 25.7 L 1316.2 33.1 Q 1313.5 31.5 1310.05 30.5 A 25.024 25.024 0 0 0 1305.567 29.653 A 31.837 31.837 0 0 0 1302.4 29.5 A 20.632 20.632 0 0 0 1299.463 29.695 Q 1296.377 30.14 1294.5 31.6 A 9.322 9.322 0 0 0 1293.142 32.874 Q 1292.44 33.692 1292.105 34.565 A 4.529 4.529 0 0 0 1291.8 36.2 A 4.921 4.921 0 0 0 1293.295 39.752 A 7.082 7.082 0 0 0 1293.9 40.3 A 9.88 9.88 0 0 0 1295.2 41.169 Q 1297.473 42.471 1301.898 43.934 A 84.459 84.459 0 0 0 1302.1 44 A 67.753 67.753 0 0 1 1307.162 45.898 Q 1313.089 48.417 1315.9 51.3 Q 1319.8 55.3 1319.8 61.3 Q 1319.8 68.048 1314.549 72.055 A 16.618 16.618 0 0 1 1314.15 72.35 Q 1309.41 75.748 1301.962 76.295 A 40.423 40.423 0 0 1 1299 76.4 Q 1293.1 76.4 1288.35 74.9 A 30.883 30.883 0 0 1 1284.51 73.415 Q 1282.529 72.484 1280.948 71.336 A 18.229 18.229 0 0 1 1280.5 71 Z"
              id="26" vector-effect="non-scaling-stroke"/>
        <path d="M 1340.8 75.2 L 1331.8 75.2 L 1331.8 23.2 L 1340.8 23.2 L 1340.8 75.2 Z M 1331.937 12.488 A 5.973 5.973 0 0 0 1336.3 14.3 A 8.175 8.175 0 0 0 1337.796 14.169 A 5.647 5.647 0 0 0 1340.9 12.55 Q 1342.6 10.8 1342.6 8 A 7.26 7.26 0 0 0 1342.6 7.919 A 6.06 6.06 0 0 0 1340.75 3.55 A 7.395 7.395 0 0 0 1340.692 3.493 A 6.059 6.059 0 0 0 1336.3 1.7 A 8.264 8.264 0 0 0 1334.644 1.858 A 5.661 5.661 0 0 0 1331.7 3.4 A 5.588 5.588 0 0 0 1330.229 6.032 A 7.987 7.987 0 0 0 1330 8 A 5.992 5.992 0 0 0 1330.492 10.419 A 6.643 6.643 0 0 0 1331.85 12.4 A 7.466 7.466 0 0 0 1331.937 12.488 Z"
              id="27" vector-effect="non-scaling-stroke"/>
        <path d="M 1392.4 27.4 L 1392.4 23.2 L 1400.6 23.2 L 1400.6 62.6 A 12.15 12.15 0 0 0 1400.702 64.236 Q 1401.034 66.67 1402.45 67.55 Q 1404.3 68.7 1406.5 68.7 L 1404.6 75.7 A 17.722 17.722 0 0 1 1400.335 75.228 Q 1394.698 73.828 1393.103 68.28 A 13.59 13.59 0 0 1 1393 67.9 A 21.307 21.307 0 0 1 1389.89 71.326 A 28.498 28.498 0 0 1 1386.75 73.75 Q 1382.8 76.4 1376.7 76.4 Q 1370.2 76.4 1364.9 73.1 A 22.947 22.947 0 0 1 1357.487 65.574 A 27.923 27.923 0 0 1 1356.45 63.75 A 27.228 27.228 0 0 1 1353.82 55.808 A 36.644 36.644 0 0 1 1353.3 49.5 A 33.142 33.142 0 0 1 1354.297 41.231 A 27.968 27.968 0 0 1 1356.45 35.5 Q 1359.6 29.3 1365.15 25.65 A 22.297 22.297 0 0 1 1376.345 22.044 A 27.388 27.388 0 0 1 1377.9 22 A 22.584 22.584 0 0 1 1382.694 22.491 A 18.703 18.703 0 0 1 1386.05 23.55 A 26.002 26.002 0 0 1 1390.337 25.844 A 22.103 22.103 0 0 1 1392.4 27.4 Z M 1391.6 61.9 L 1391.6 34 Q 1388.9 32.1 1385.65 30.95 Q 1382.4 29.8 1378.8 29.8 A 15.924 15.924 0 0 0 1373.829 30.554 A 14.024 14.024 0 0 0 1370.35 32.25 A 16.301 16.301 0 0 0 1365.331 37.674 A 19.962 19.962 0 0 0 1364.6 39.05 A 20.663 20.663 0 0 0 1362.847 44.727 A 27.678 27.678 0 0 0 1362.5 49.2 Q 1362.5 54.8 1364.6 59.15 A 17.602 17.602 0 0 0 1367.706 63.696 A 15.697 15.697 0 0 0 1370.4 65.95 Q 1374.1 68.4 1378.7 68.4 Q 1382.5 68.4 1385.9 66.55 Q 1389.3 64.7 1391.6 61.9 Z"
              id="28" vector-effect="non-scaling-stroke"/>
        <path d="M 1427.5 75.2 L 1418.5 75.2 L 1418.5 23.2 L 1427.2 23.2 L 1427.2 31.9 Q 1430 27.7 1434.35 24.85 A 17.316 17.316 0 0 1 1441.456 22.226 A 22.629 22.629 0 0 1 1444.7 22 A 23.225 23.225 0 0 1 1449.765 22.518 Q 1454.859 23.656 1457.85 27.3 Q 1461.975 32.326 1462.188 40.409 A 33.764 33.764 0 0 1 1462.2 41.3 L 1462.2 75.2 L 1453.2 75.2 L 1453.2 42.3 A 19.265 19.265 0 0 0 1452.858 38.559 Q 1452.419 36.345 1451.419 34.597 A 10.966 10.966 0 0 0 1450.55 33.3 A 8.579 8.579 0 0 0 1444.273 29.947 A 12.061 12.061 0 0 0 1443.2 29.9 A 13.122 13.122 0 0 0 1436.351 31.864 A 17.353 17.353 0 0 0 1434.5 33.15 Q 1430.4 36.4 1427.5 40.8 L 1427.5 75.2 Z"
              id="29" vector-effect="non-scaling-stroke"/>
        <path d="M 1543.6 25.1 L 1540.9 32.7 A 30.422 30.422 0 0 0 1537.996 31.424 A 23.42 23.42 0 0 0 1535.55 30.65 A 20.543 20.543 0 0 0 1532.507 30.125 A 26.355 26.355 0 0 0 1529.9 30 A 15.889 15.889 0 0 0 1522.647 31.643 A 16.132 16.132 0 0 0 1518.15 35.05 Q 1513.4 40.1 1513.4 49 A 25.192 25.192 0 0 0 1514.105 55.06 A 21.45 21.45 0 0 0 1515.4 58.8 A 18.564 18.564 0 0 0 1518.31 63.378 A 16.275 16.275 0 0 0 1520.95 65.8 Q 1524.5 68.4 1529.3 68.4 Q 1532.465 68.4 1534.868 67.81 A 15.08 15.08 0 0 0 1535.8 67.55 Q 1538.489 66.703 1541.576 65.113 A 49.095 49.095 0 0 0 1541.6 65.1 L 1544.4 72.7 Q 1541.3 74.4 1537.45 75.4 Q 1533.6 76.4 1528.7 76.4 A 26.803 26.803 0 0 1 1521.661 75.51 A 22.074 22.074 0 0 1 1515.75 72.95 Q 1510.2 69.5 1507.2 63.35 Q 1504.2 57.2 1504.2 49.2 Q 1504.2 41.7 1507.25 35.5 Q 1510.3 29.3 1516 25.65 A 23.067 23.067 0 0 1 1525.668 22.229 A 29.608 29.608 0 0 1 1529.4 22 Q 1533.8 22 1537.15 22.8 Q 1540.5 23.6 1543.6 25.1 Z"
              id="31" vector-effect="non-scaling-stroke"/>
        <path d="M 1562.5 72.95 A 24.559 24.559 0 0 0 1567.098 75.04 Q 1571.153 76.4 1575.8 76.4 Q 1583.2 76.4 1589.05 73 Q 1594.9 69.6 1598.3 63.45 A 26.255 26.255 0 0 0 1600.953 56.309 A 34.184 34.184 0 0 0 1601.7 49 A 34.542 34.542 0 0 0 1601.215 43.092 A 25.795 25.795 0 0 0 1598.25 34.65 Q 1594.8 28.6 1588.95 25.3 A 24.848 24.848 0 0 0 1584.309 23.273 A 27.738 27.738 0 0 0 1575.8 22 A 31.325 31.325 0 0 0 1574.22 22.04 A 26.169 26.169 0 0 0 1562.6 25.3 Q 1556.7 28.6 1553.3 34.7 A 26.023 26.023 0 0 0 1550.551 42.29 A 35.006 35.006 0 0 0 1549.9 49.2 A 34.82 34.82 0 0 0 1550.165 53.554 A 27.451 27.451 0 0 0 1553.25 63.35 Q 1556.6 69.5 1562.5 72.95 Z M 1575.8 68.4 Q 1583.7 68.4 1588.1 63.05 A 18.802 18.802 0 0 0 1591.919 54.96 A 27.105 27.105 0 0 0 1592.5 49.2 Q 1592.5 44 1590.3 39.65 A 19.198 19.198 0 0 0 1586.128 34.081 A 18.17 18.17 0 0 0 1584.35 32.65 Q 1580.6 30 1575.8 30 A 19.249 19.249 0 0 0 1570.574 30.672 A 14.037 14.037 0 0 0 1563.5 35.2 A 17.878 17.878 0 0 0 1559.826 42.574 Q 1559.1 45.506 1559.1 49 Q 1559.1 54.2 1561.3 58.65 A 19.437 19.437 0 0 0 1564.83 63.69 A 17.627 17.627 0 0 0 1567.25 65.75 Q 1571 68.4 1575.8 68.4 Z"
              id="32" vector-effect="non-scaling-stroke"/>
        <path d="M 1622.7 75.2 L 1613.7 75.2 L 1613.7 23.2 L 1622.4 23.2 L 1622.4 31.9 Q 1625.2 27.7 1629.5 24.85 A 17.205 17.205 0 0 1 1638.702 22.009 A 20.858 20.858 0 0 1 1639.3 22 A 20.994 20.994 0 0 1 1643.717 22.44 Q 1646.703 23.082 1648.985 24.663 A 13.128 13.128 0 0 1 1649.45 25 A 15.751 15.751 0 0 1 1654.898 32.69 A 19.154 19.154 0 0 1 1655 33 Q 1658.1 28.4 1662.35 25.2 A 15.669 15.669 0 0 1 1669.141 22.317 A 21.446 21.446 0 0 1 1672.9 22 A 21.437 21.437 0 0 1 1677.788 22.523 Q 1681.374 23.362 1683.863 25.551 A 12.994 12.994 0 0 1 1685.55 27.35 A 18.992 18.992 0 0 1 1688.961 34.622 Q 1689.7 37.672 1689.7 41.3 L 1689.7 75.2 L 1680.7 75.2 L 1680.7 42 A 19.042 19.042 0 0 0 1680.363 38.311 Q 1679.927 36.105 1678.928 34.361 A 10.982 10.982 0 0 0 1678.2 33.25 A 7.974 7.974 0 0 0 1672.387 29.954 A 10.678 10.678 0 0 0 1671.3 29.9 A 11.926 11.926 0 0 0 1664.541 32.027 A 15.996 15.996 0 0 0 1662.95 33.25 Q 1659.1 36.6 1656.2 41.1 L 1656.2 75.2 L 1647.2 75.2 L 1647.2 42 A 19.042 19.042 0 0 0 1646.863 38.311 Q 1646.427 36.105 1645.428 34.361 A 10.982 10.982 0 0 0 1644.7 33.25 A 7.974 7.974 0 0 0 1638.887 29.954 A 10.678 10.678 0 0 0 1637.8 29.9 A 12.02 12.02 0 0 0 1631.481 31.728 A 16.244 16.244 0 0 0 1629.5 33.15 Q 1625.6 36.4 1622.7 40.8 L 1622.7 75.2 Z"
              id="33" vector-effect="non-scaling-stroke"/>
        <path d="M 1714.2 75.2 L 1705.2 75.2 L 1705.2 23.2 L 1713.9 23.2 L 1713.9 31.9 Q 1716.7 27.7 1721 24.85 A 17.205 17.205 0 0 1 1730.202 22.009 A 20.858 20.858 0 0 1 1730.8 22 A 20.994 20.994 0 0 1 1735.217 22.44 Q 1738.203 23.082 1740.485 24.663 A 13.128 13.128 0 0 1 1740.95 25 A 15.751 15.751 0 0 1 1746.398 32.69 A 19.154 19.154 0 0 1 1746.5 33 Q 1749.6 28.4 1753.85 25.2 A 15.669 15.669 0 0 1 1760.641 22.317 A 21.446 21.446 0 0 1 1764.4 22 A 21.437 21.437 0 0 1 1769.288 22.523 Q 1772.874 23.362 1775.363 25.551 A 12.994 12.994 0 0 1 1777.05 27.35 A 18.992 18.992 0 0 1 1780.461 34.622 Q 1781.2 37.672 1781.2 41.3 L 1781.2 75.2 L 1772.2 75.2 L 1772.2 42 A 19.042 19.042 0 0 0 1771.863 38.311 Q 1771.427 36.105 1770.428 34.361 A 10.982 10.982 0 0 0 1769.7 33.25 A 7.974 7.974 0 0 0 1763.887 29.954 A 10.678 10.678 0 0 0 1762.8 29.9 A 11.926 11.926 0 0 0 1756.041 32.027 A 15.996 15.996 0 0 0 1754.45 33.25 Q 1750.6 36.6 1747.7 41.1 L 1747.7 75.2 L 1738.7 75.2 L 1738.7 42 A 19.042 19.042 0 0 0 1738.363 38.311 Q 1737.927 36.105 1736.928 34.361 A 10.982 10.982 0 0 0 1736.2 33.25 A 7.974 7.974 0 0 0 1730.387 29.954 A 10.678 10.678 0 0 0 1729.3 29.9 A 12.02 12.02 0 0 0 1722.981 31.728 A 16.244 16.244 0 0 0 1721 33.15 Q 1717.1 36.4 1714.2 40.8 L 1714.2 75.2 Z"
              id="34" vector-effect="non-scaling-stroke"/>
        <path d="M 1796.2 57 L 1796.2 23.2 L 1805.2 23.2 L 1805.2 55.8 A 22.981 22.981 0 0 0 1805.454 59.334 Q 1805.742 61.181 1806.357 62.67 A 10.136 10.136 0 0 0 1807.8 65.15 A 8.404 8.404 0 0 0 1812.913 68.171 A 12.807 12.807 0 0 0 1815.4 68.4 Q 1819.5 68.4 1823.35 66.75 Q 1827.2 65.1 1830.2 62.3 L 1830.2 23.2 L 1839.2 23.2 L 1839.2 61.7 A 15.602 15.602 0 0 0 1839.302 63.554 Q 1839.634 66.317 1841.05 67.35 Q 1842.9 68.7 1845.1 68.7 L 1843.2 75.7 Q 1833.9 75.7 1831.7 68.3 Q 1828.2 71.9 1823.6 74.15 Q 1819 76.4 1813.7 76.4 Q 1809.2 76.4 1805.2 74.5 A 14.441 14.441 0 0 1 1799.69 69.861 A 18.266 18.266 0 0 1 1798.7 68.35 A 16.24 16.24 0 0 1 1797.036 64.257 Q 1796.2 61.105 1796.2 57 Z"
              id="35" vector-effect="non-scaling-stroke"/>
        <path d="M 1866.1 75.2 L 1857.1 75.2 L 1857.1 23.2 L 1865.8 23.2 L 1865.8 31.9 Q 1868.6 27.7 1872.95 24.85 A 17.316 17.316 0 0 1 1880.056 22.226 A 22.629 22.629 0 0 1 1883.3 22 A 23.225 23.225 0 0 1 1888.365 22.518 Q 1893.459 23.656 1896.45 27.3 Q 1900.575 32.326 1900.788 40.409 A 33.764 33.764 0 0 1 1900.8 41.3 L 1900.8 75.2 L 1891.8 75.2 L 1891.8 42.3 A 19.265 19.265 0 0 0 1891.458 38.559 Q 1891.019 36.345 1890.019 34.597 A 10.966 10.966 0 0 0 1889.15 33.3 A 8.579 8.579 0 0 0 1882.873 29.947 A 12.061 12.061 0 0 0 1881.8 29.9 A 13.122 13.122 0 0 0 1874.951 31.864 A 17.353 17.353 0 0 0 1873.1 33.15 Q 1869 36.4 1866.1 40.8 L 1866.1 75.2 Z"
              id="36" vector-effect="non-scaling-stroke"/>
        <path d="M 1925.3 75.2 L 1916.3 75.2 L 1916.3 23.2 L 1925.3 23.2 L 1925.3 75.2 Z M 1916.437 12.488 A 5.973 5.973 0 0 0 1920.8 14.3 A 8.175 8.175 0 0 0 1922.296 14.169 A 5.647 5.647 0 0 0 1925.4 12.55 Q 1927.1 10.8 1927.1 8 A 7.26 7.26 0 0 0 1927.1 7.919 A 6.06 6.06 0 0 0 1925.25 3.55 A 7.395 7.395 0 0 0 1925.192 3.493 A 6.059 6.059 0 0 0 1920.8 1.7 A 8.264 8.264 0 0 0 1919.144 1.858 A 5.661 5.661 0 0 0 1916.2 3.4 A 5.588 5.588 0 0 0 1914.729 6.032 A 7.987 7.987 0 0 0 1914.5 8 A 5.992 5.992 0 0 0 1914.992 10.419 A 6.643 6.643 0 0 0 1916.35 12.4 A 7.466 7.466 0 0 0 1916.437 12.488 Z"
              id="37" vector-effect="non-scaling-stroke"/>
        <path d="M 1943.3 57.3 L 1943.3 32.9 L 1934.3 32.9 L 1934.3 25.1 L 1943.5 25.1 L 1945.4 8.7 L 1952.3 8.7 L 1952.3 25.1 L 1966.7 25.1 L 1966.7 32.9 L 1952.3 32.9 L 1952.3 58 A 21.559 21.559 0 0 0 1952.468 60.796 Q 1952.941 64.402 1954.75 66.1 Q 1957.2 68.4 1960.6 68.4 Q 1963.1 68.4 1965.35 67.6 Q 1967.6 66.8 1969.5 65.7 L 1972 72.9 A 18.546 18.546 0 0 1 1970.382 73.756 Q 1969.58 74.135 1968.634 74.508 A 43.365 43.365 0 0 1 1966.6 75.25 Q 1963.2 76.4 1959.5 76.4 Q 1952 76.4 1947.65 71.45 A 16.116 16.116 0 0 1 1944.422 65.548 Q 1943.659 63.117 1943.415 60.181 A 34.777 34.777 0 0 1 1943.3 57.3 Z"
              id="38" vector-effect="non-scaling-stroke"/>
        <path d="M 1972.5 96.4 L 1974.5 88.9 A 9.908 9.908 0 0 0 1975.665 89.474 Q 1976.488 89.819 1977.5 90.1 A 13.514 13.514 0 0 0 1979.779 90.518 A 17.358 17.358 0 0 0 1981.5 90.6 Q 1985.7 90.6 1989 87.9 A 12.003 12.003 0 0 0 1990.933 85.839 Q 1992.681 83.528 1994.341 79.675 A 58.58 58.58 0 0 0 1995.3 77.3 L 1997.6 71.3 L 1992.8 71.3 L 1972.5 25.6 L 1980.5 22 L 1999.9 65.3 L 2015 22.4 L 2023.3 25.6 L 2004.2 77.8 A 71.728 71.728 0 0 1 2002.147 82.887 Q 2001.045 85.326 1999.878 87.314 A 30.86 30.86 0 0 1 1997.9 90.3 A 24.268 24.268 0 0 1 1995.022 93.511 Q 1993.108 95.279 1991.005 96.318 A 14.737 14.737 0 0 1 1990.4 96.6 Q 1986.3 98.4 1981.3 98.4 Q 1978.3 98.4 1976.05 97.8 Q 1973.8 97.2 1972.5 96.4 Z"
              id="39" vector-effect="non-scaling-stroke"/>
    </g>
</svg>
